<svg xmlns="http://www.w3.org/2000/svg" xml:space="preserve" width="655.359" height="655.359" style="shape-rendering:geometricPrecision;text-rendering:geometricPrecision;image-rendering:optimizeQuality;fill-rule:evenodd;clip-rule:evenodd" viewBox="0 0 6.827 6.827"><defs><style>.fil1{fill:#feca5f}.fil0{fill:#333;fill-rule:nonzero}</style></defs><g id="Layer_x0020_1"><path class="fil0" d="M5.823 3.285c-.066.107-.358.251-.78.364a4.964 4.964 0 0 1-1.265.164c-1.006 0-1.67-.346-2.033-.535l-.041-.022a.08.08 0 0 0-.122.068c0 .75.548 1.21 1.26 1.408a3.47 3.47 0 0 0 1.772-.008c.759-.208 1.36-.684 1.36-1.4a.08.08 0 0 0-.15-.039zM1.75 3.46c.39.202 1.053.514 2.029.514.486 0 .94-.07 1.307-.17.306-.082.554-.186.71-.287-.098.526-.603.884-1.223 1.054a3.31 3.31 0 0 1-1.688.008c-.6-.167-1.072-.534-1.135-1.119z"/><path class="fil0" d="M3.778 4.234a.08.08 0 0 0 0-.16 3.948 3.948 0 0 1-1.496-.283.08.08 0 0 0-.059.148 4.109 4.109 0 0 0 1.555.295zM1.697 3.465 1.032 2.6l.252-.378c.116.19.527.763.78 1.117.072.012.143.023.214.032a47.992 47.992 0 0 1-.912-1.34.08.08 0 0 0-.14-.011l-.358.537a.08.08 0 0 0 .002.095l.063-.049-.063.049.837 1.081c-.023-.225-.113-.1-.01-.268z"/><path class="fil0" d="M5.64 2.101c-.033.121-.272.343-.644.572a4.963 4.963 0 0 1-1.167.518 4.012 4.012 0 0 1-1.819.116l-.306-.051c.048.024.083.116.132.139.12.055.08.073.205.116l.457.006c.38.017.844-.015 1.376-.173a5.127 5.127 0 0 0 1.206-.535c.27-.166.478-.337.6-.478a1.07 1.07 0 0 1-.136.629c-.124.227-.32.434-.562.611l-.2.155c.022-.006.199-.01.22-.016.108-.029.092-.05.2-.09l.171-.175c.126-.127.232-.264.311-.41a1.2 1.2 0 0 0 .11-.938.08.08 0 0 0-.154.004z"/><path class="fil0" d="M4.539 3.328a.08.08 0 0 0-.07-.143A3.95 3.95 0 0 1 3 3.588a.08.08 0 0 0-.07.057c.135.029.27.05.408.065a4.252 4.252 0 0 0 1.2-.382z"/><path class="fil1" d="M4.575 3.222a.08.08 0 0 1-.036.106 4.252 4.252 0 0 1-1.2.382 3.923 3.923 0 0 1-.408-.065.08.08 0 0 1 .07-.057 3.95 3.95 0 0 0 1.468-.403.08.08 0 0 1 .106.037zM5.68 2.33c-.121.141-.329.312-.6.478a5.127 5.127 0 0 1-1.205.535c-.532.158-.996.19-1.376.174l-.256-.004c.376.154.884.299 1.536.299a5.03 5.03 0 0 0 1.03-.107l.174-.135c.242-.177.438-.384.562-.611a1.07 1.07 0 0 0 .135-.63z"/><path class="fil1" d="M5.085 3.804c-.366.098-.821.169-1.307.169a4.227 4.227 0 0 1-2.029-.514c.063.585.535.952 1.135 1.119a3.31 3.31 0 0 0 1.688-.008c.62-.17 1.125-.528 1.224-1.054a2.639 2.639 0 0 1-.711.288zm-1.227.35a.08.08 0 0 1-.08.08 4.109 4.109 0 0 1-1.554-.295.08.08 0 0 1 .058-.148 3.948 3.948 0 0 0 1.496.283.08.08 0 0 1 .08.08z"/><path d="M2.044 3.312c-.253-.356-.647-.905-.76-1.09l-.252.378.55.715a.08.08 0 0 1 .122-.059 214.63 214.63 0 0 0 .34.056z" style="fill:#b38e85"/></g><path style="fill:none" d="M0 0h6.827v6.827H0z"/></svg>